<?xml version="1.0" encoding="UTF-8"?>
<svg id="Layer_2" data-name="Layer 2" xmlns="http://www.w3.org/2000/svg" viewBox="0 0 228.68 401.67">
  <defs>
    <style>
      .cls-1 {
        fill: #fefefe;
      }
    </style>
  </defs>
  <g id="Layer_1-2" data-name="Layer 1">
    <g>
      <path class="cls-1" d="M91.77,326.45c-1.03,5.51-.05,11.33,3.01,16.06.47.55.38.08.3-.3-.78-3.32-1.9-6.56-1.6-10.1.02-.26.11-1.32.45-1.35,1.06,2.03,2.69,4.26,4.31,5.89,2.06,2.08,4.86,3.48,6.72,5.75,3.29,4.03,2.29,7.52-.62,11.36s-7.16,7.36-10.61,10.97c-.1.53,2,3.36,2.48,3.93,3.87,4.58,11.39,7.01,10.08,14.16-.68,3.69-7.5,10.2-10.31,12.95-1.75,1.71-3.68,3.29-5.4,5.03,1.06-3.21-1.4-6.6-3.48-8.88-3.15-3.47-12.07-8.03-12.06-13.07,0-5.33,10.14-13.3,13.86-16.79,1.34-1.25.79-1.39-.36-2.76-3.18-3.8-11.11-8.17-12.63-12.31-1.85-5.02,4.85-10.8,8.19-13.96,1.98-1.88,4.85-4.63,6.95-6.23.24-.18.3-.47.72-.36Z"/>
      <g>
        <path class="cls-1" d="M172.81,326.45c-1.03,5.51-.05,11.33,3.01,16.06.47.55.38.08.3-.3-.78-3.32-1.9-6.56-1.6-10.1.02-.26.11-1.32.45-1.35,1.06,2.03,2.69,4.26,4.31,5.89,2.06,2.08,4.86,3.48,6.72,5.75,3.29,4.03,2.29,7.52-.62,11.36s-7.16,7.36-10.61,10.97c-.1.53,2,3.36,2.48,3.93,3.87,4.58,11.39,7.01,10.08,14.16-.68,3.69-7.5,10.2-10.31,12.95-1.75,1.71-3.68,3.29-5.4,5.03,1.06-3.21-1.4-6.6-3.48-8.88-3.15-3.47-12.07-8.03-12.06-13.07,0-5.33,10.14-13.3,13.86-16.79,1.34-1.25.79-1.39-.36-2.76-3.18-3.8-11.11-8.17-12.63-12.31-1.85-5.02,4.85-10.8,8.19-13.96,1.98-1.88,4.85-4.63,6.95-6.23.24-.18.3-.47.72-.36Z"/>
        <path class="cls-1" d="M172.81,244.9c-1.03,5.51-.05,11.33,3.01,16.06.47.55.38.08.3-.3-.78-3.32-1.9-6.56-1.6-10.1.02-.26.11-1.32.45-1.35,1.06,2.03,2.69,4.26,4.31,5.89,2.06,2.08,4.86,3.48,6.72,5.75,3.29,4.03,2.29,7.52-.62,11.36s-7.16,7.36-10.61,10.97c-.1.53,2,3.36,2.48,3.93,3.87,4.58,11.39,7.01,10.08,14.16-.68,3.69-7.5,10.2-10.31,12.95-1.75,1.71-3.68,3.29-5.4,5.03,1.06-3.21-1.4-6.6-3.48-8.88-3.15-3.47-12.07-8.03-12.06-13.07,0-5.33,10.14-13.3,13.86-16.79,1.34-1.25.79-1.39-.36-2.76-3.19-3.8-11.12-8.18-12.63-12.31-1.85-5.02,4.85-10.8,8.19-13.96,1.98-1.88,4.85-4.63,6.95-6.23.24-.18.3-.47.72-.36Z"/>
      </g>
      <path class="cls-1" d="M91.77,244.9c-1.03,5.51-.05,11.33,3.01,16.06.47.55.38.08.3-.3-.78-3.32-1.9-6.56-1.6-10.1.02-.26.11-1.32.45-1.35,1.06,2.03,2.69,4.26,4.31,5.89,2.06,2.08,4.86,3.48,6.72,5.75,3.29,4.03,2.29,7.52-.62,11.36s-7.16,7.36-10.61,10.97c-.1.53,2,3.36,2.48,3.93,3.87,4.58,11.39,7.01,10.08,14.16-.68,3.69-7.5,10.2-10.31,12.95-1.75,1.71-3.68,3.29-5.4,5.03,1.06-3.21-1.4-6.6-3.48-8.88-3.15-3.47-12.07-8.03-12.06-13.07,0-5.33,10.14-13.3,13.86-16.79,1.34-1.25.79-1.39-.36-2.76-3.19-3.8-11.12-8.18-12.63-12.31-1.85-5.02,4.85-10.8,8.19-13.96,1.98-1.88,4.85-4.63,6.95-6.23.24-.18.3-.47.72-.36Z"/>
      <path class="cls-1" d="M57.25,163.34c-1.03,5.51-.05,11.33,3.01,16.06.47.55.38.08.3-.3-.78-3.32-1.9-6.56-1.6-10.1.02-.26.11-1.32.45-1.35,1.06,2.03,2.69,4.26,4.31,5.89,2.06,2.08,4.86,3.48,6.72,5.75,3.29,4.03,2.29,7.52-.62,11.36s-7.16,7.36-10.61,10.97c-.23,1.19,4.64,6.24,5.71,7.16,3.69,3.18,7.96,4.86,6.85,10.92-.66,3.62-7.32,10.01-10.07,12.71-1.82,1.79-3.84,3.45-5.64,5.27,1.06-3.21-1.4-6.6-3.48-8.88-3.15-3.47-12.07-8.03-12.06-13.07,0-5.33,10.14-13.3,13.86-16.79,1.34-1.25.79-1.39-.36-2.76-3.19-3.8-11.12-8.18-12.63-12.31-1.85-5.02,4.85-10.8,8.19-13.96,1.98-1.88,4.85-4.63,6.95-6.23.24-.18.3-.47.72-.36Z"/>
      <path class="cls-1" d="M91.77,163.34c-1.03,5.51-.05,11.33,3.01,16.06.47.55.38.08.3-.3-.78-3.32-1.9-6.56-1.6-10.1.02-.26.11-1.32.45-1.35,1.06,2.03,2.69,4.26,4.31,5.89,2.06,2.08,4.86,3.48,6.72,5.75,3.29,4.03,2.29,7.52-.62,11.36s-7.16,7.36-10.61,10.97c-.23,1.19,4.64,6.24,5.71,7.16,3.69,3.18,7.96,4.86,6.85,10.92-.66,3.62-7.32,10.01-10.07,12.71-1.82,1.79-3.84,3.45-5.64,5.27,1.06-3.21-1.4-6.6-3.48-8.88-3.15-3.47-12.07-8.03-12.06-13.07,0-5.33,10.14-13.3,13.86-16.79,1.34-1.25.79-1.39-.36-2.76-3.19-3.8-11.12-8.18-12.63-12.31-1.85-5.02,4.85-10.8,8.19-13.96,1.98-1.88,4.85-4.63,6.95-6.23.24-.18.3-.47.72-.36Z"/>
      <path class="cls-1" d="M132.29,163.34c-1.03,5.51-.05,11.33,3.01,16.06.47.55.38.08.3-.3-.78-3.32-1.9-6.56-1.6-10.1.02-.26.11-1.32.45-1.35,1.06,2.03,2.69,4.26,4.31,5.89,2.06,2.08,4.86,3.48,6.72,5.75,3.29,4.03,2.29,7.52-.62,11.36s-7.16,7.36-10.61,10.97c-.23,1.19,4.64,6.24,5.71,7.16,3.69,3.18,7.96,4.86,6.85,10.92-.66,3.62-7.32,10.01-10.07,12.71-1.82,1.79-3.84,3.45-5.64,5.27,1.06-3.21-1.4-6.6-3.48-8.88-3.15-3.47-12.07-8.03-12.06-13.07,0-5.33,10.14-13.3,13.86-16.79,1.34-1.25.79-1.39-.36-2.76-3.19-3.8-11.12-8.18-12.63-12.31-1.85-5.02,4.85-10.8,8.19-13.96,1.98-1.88,4.85-4.63,6.95-6.23.24-.18.3-.47.72-.36Z"/>
      <path class="cls-1" d="M172.81,163.34c-1.03,5.51-.05,11.33,3.01,16.06.47.55.38.08.3-.3-.78-3.32-1.9-6.56-1.6-10.1.02-.26.11-1.32.45-1.35,1.06,2.03,2.69,4.26,4.31,5.89,2.06,2.08,4.86,3.48,6.72,5.75,3.29,4.03,2.29,7.52-.62,11.36s-7.16,7.36-10.61,10.97c-.23,1.19,4.64,6.24,5.71,7.16,3.69,3.18,7.96,4.86,6.85,10.92-.66,3.62-7.32,10.01-10.07,12.71-1.82,1.79-3.84,3.45-5.64,5.27,1.06-3.21-1.4-6.6-3.48-8.88-3.15-3.47-12.07-8.03-12.06-13.07,0-5.33,10.14-13.3,13.86-16.79,1.34-1.25.79-1.39-.36-2.76-3.19-3.8-11.12-8.18-12.63-12.31-1.85-5.02,4.85-10.8,8.19-13.96,1.98-1.88,4.85-4.63,6.95-6.23.24-.18.3-.47.72-.36Z"/>
      <g>
        <path class="cls-1" d="M95.13,16.55c-.82-3.33-1.95-7.19-1.65-10.64.02-.26.11-1.32.45-1.35,1.06,2.03,2.69,4.26,4.31,5.89,3.62,3.64,9.93,6.04,8.57,12.4-1.19,5.59-9.43,11.44-13.08,15.69-.23,1.19,4.64,6.24,5.71,7.16,3.51,3.03,7.59,4.6,6.96,10.31-.44,4-7.26,10.45-10.18,13.32-1.82,1.79-3.84,3.45-5.64,5.27,1.06-3.21-1.4-6.6-3.48-8.88-3.14-3.46-12.07-8.06-12.06-13.07,0-3.6,5.67-9.41,8.22-11.88.79-.77,6.62-5.55,6.51-6-.2-.78-3.87-4.43-4.7-5.15-6.67-5.79-14.14-8.39-5.88-17.87C82.9,7.48,87.69,4.04,91.66,0c-.12,2.77-.49,5.18-.06,7.97s1.66,6.38,3.53,8.58Z"/>
        <path class="cls-1" d="M60.6,16.55c-.82-3.33-1.95-7.19-1.65-10.64.02-.26.11-1.32.45-1.35,1.06,2.03,2.69,4.26,4.31,5.89,3.62,3.64,9.93,6.04,8.57,12.4-1.19,5.59-9.43,11.44-13.08,15.69-.23,1.19,4.64,6.24,5.71,7.16,3.51,3.03,7.59,4.6,6.96,10.31-.44,4-7.26,10.45-10.18,13.32-1.82,1.79-3.84,3.45-5.64,5.27,1.06-3.21-1.4-6.6-3.48-8.88-3.14-3.46-12.07-8.06-12.06-13.07,0-3.6,5.67-9.41,8.22-11.88.79-.77,6.62-5.55,6.51-6-.2-.78-3.87-4.43-4.7-5.15-6.67-5.79-14.14-8.39-5.88-17.87C48.38,7.48,53.17,4.04,57.13,0c-.12,2.77-.49,5.18-.06,7.97s1.66,6.38,3.53,8.58Z"/>
      </g>
      <path class="cls-1" d="M57.25,81.79c-1.03,5.51-.05,11.33,3.01,16.06.47.55.38.08.3-.3-.78-3.32-1.9-6.56-1.6-10.1.02-.26.11-1.32.45-1.35,1.06,2.03,2.69,4.26,4.31,5.89,2.06,2.08,4.86,3.48,6.72,5.75,3.29,4.03,2.29,7.52-.62,11.36s-7.18,7.35-10.61,10.97c-.23,1.19,4.64,6.24,5.71,7.16,3.69,3.18,7.96,4.86,6.85,10.92-.66,3.62-7.32,10.01-10.07,12.71-1.82,1.79-3.84,3.45-5.64,5.27,1.06-3.21-1.4-6.6-3.48-8.88-3.14-3.46-12.07-8.06-12.06-13.07,0-5.33,10.14-13.3,13.86-16.79,1.34-1.25.79-1.39-.36-2.76-3.19-3.8-11.12-8.18-12.63-12.31-1.87-5.07,5.06-11.01,8.43-14.2,1.89-1.79,4.71-4.46,6.71-5.99.24-.18.3-.47.72-.36Z"/>
      <path class="cls-1" d="M91.77,81.79c-1.03,5.51-.05,11.33,3.01,16.06.47.55.38.08.3-.3-.78-3.32-1.9-6.56-1.6-10.1.02-.26.11-1.32.45-1.35,1.06,2.03,2.69,4.26,4.31,5.89,2.06,2.08,4.86,3.48,6.72,5.75,3.29,4.03,2.29,7.52-.62,11.36s-7.18,7.35-10.61,10.97c-.23,1.19,4.64,6.24,5.71,7.16,3.69,3.18,7.96,4.86,6.85,10.92-.66,3.62-7.32,10.01-10.07,12.71-1.82,1.79-3.84,3.45-5.64,5.27,1.06-3.21-1.4-6.6-3.48-8.88-3.14-3.46-12.07-8.06-12.06-13.07,0-5.33,10.14-13.3,13.86-16.79,1.34-1.25.79-1.39-.36-2.76-3.19-3.8-11.12-8.18-12.63-12.31-1.87-5.07,5.06-11.01,8.43-14.2,1.89-1.79,4.71-4.46,6.71-5.99.24-.18.3-.47.72-.36Z"/>
      <g>
        <path class="cls-1" d="M176.16,16.55c-.82-3.33-1.95-7.19-1.65-10.64.02-.26.11-1.32.45-1.35,1.06,2.03,2.69,4.26,4.31,5.89,3.62,3.64,9.93,6.04,8.57,12.4-1.19,5.59-9.43,11.44-13.08,15.69-.23,1.19,4.64,6.24,5.71,7.16,3.51,3.03,7.59,4.6,6.96,10.31-.44,4-7.26,10.45-10.18,13.32-1.82,1.79-3.84,3.45-5.64,5.27,1.06-3.21-1.4-6.6-3.48-8.88-3.14-3.46-12.07-8.06-12.06-13.07,0-3.6,5.67-9.41,8.22-11.88.79-.77,6.62-5.55,6.51-6-.2-.78-3.87-4.43-4.7-5.15-6.67-5.79-14.14-8.39-5.88-17.87,3.72-4.27,8.51-7.71,12.47-11.75-.12,2.77-.49,5.18-.06,7.97s1.66,6.38,3.53,8.58Z"/>
        <path class="cls-1" d="M172.81,81.79c-1.03,5.51-.05,11.33,3.01,16.06.47.55.38.08.3-.3-.78-3.32-1.9-6.56-1.6-10.1.02-.26.11-1.32.45-1.35,1.06,2.03,2.69,4.26,4.31,5.89,2.06,2.08,4.86,3.48,6.72,5.75,3.29,4.03,2.29,7.52-.62,11.36s-7.18,7.35-10.61,10.97c-.23,1.19,4.64,6.24,5.71,7.16,3.69,3.18,7.96,4.86,6.85,10.92-.66,3.62-7.32,10.01-10.07,12.71-1.82,1.79-3.84,3.45-5.64,5.27,1.06-3.21-1.4-6.6-3.48-8.88-3.14-3.46-12.07-8.06-12.06-13.07,0-5.33,10.14-13.3,13.86-16.79,1.34-1.25.79-1.39-.36-2.76-3.19-3.8-11.12-8.18-12.63-12.31-1.87-5.07,5.06-11.01,8.43-14.2,1.89-1.79,4.71-4.46,6.71-5.99.24-.18.3-.47.72-.36Z"/>
      </g>
      <g>
        <path class="cls-1" d="M135.65,16.55c-.82-3.33-1.95-7.19-1.65-10.64.02-.26.11-1.32.45-1.35,1.06,2.03,2.69,4.26,4.31,5.89,3.62,3.64,9.93,6.04,8.57,12.4-1.19,5.59-9.43,11.44-13.08,15.69-.23,1.19,4.64,6.24,5.71,7.16,3.51,3.03,7.59,4.6,6.96,10.31-.44,4-7.26,10.45-10.18,13.32-1.82,1.79-3.84,3.45-5.64,5.27,1.06-3.21-1.4-6.6-3.48-8.88-3.14-3.46-12.07-8.06-12.06-13.07,0-3.6,5.67-9.41,8.22-11.88.79-.77,6.62-5.55,6.51-6-.2-.78-3.87-4.43-4.7-5.15-6.67-5.79-14.14-8.39-5.88-17.87,3.72-4.27,8.51-7.71,12.47-11.75-.12,2.77-.49,5.18-.06,7.97s1.66,6.38,3.53,8.58Z"/>
        <path class="cls-1" d="M132.29,81.79c-1.03,5.51-.05,11.33,3.01,16.06.47.55.38.08.3-.3-.78-3.32-1.9-6.56-1.6-10.1.02-.26.11-1.32.45-1.35,1.06,2.03,2.69,4.26,4.31,5.89,2.06,2.08,4.86,3.48,6.72,5.75,3.29,4.03,2.29,7.52-.62,11.36s-7.18,7.35-10.61,10.97c-.23,1.19,4.64,6.24,5.71,7.16,3.69,3.18,7.96,4.86,6.85,10.92-.66,3.62-7.32,10.01-10.07,12.71-1.82,1.79-3.84,3.45-5.64,5.27,1.06-3.21-1.4-6.6-3.48-8.88-3.14-3.46-12.07-8.06-12.06-13.07,0-5.33,10.14-13.3,13.86-16.79,1.34-1.25.79-1.39-.36-2.76-3.19-3.8-11.12-8.18-12.63-12.31-1.87-5.07,5.06-11.01,8.43-14.2,1.89-1.79,4.71-4.46,6.71-5.99.24-.18.3-.47.72-.36Z"/>
      </g>
      <path class="cls-1" d="M48.38,237.7l.72.95c-3.68-1.14-3.39-7.34,1.21-6.12,3.5.93,1.51,6.48-1.93,5.17Z"/>
      <path class="cls-1" d="M82.9,237.7l.72.95c-3.68-1.14-3.39-7.34,1.21-6.12,3.5.93,1.51,6.48-1.93,5.17Z"/>
      <path class="cls-1" d="M123.42,237.7l.72.95c-3.68-1.14-3.39-7.34,1.21-6.12,3.5.93,1.51,6.48-1.93,5.17Z"/>
      <path class="cls-1" d="M163.94,237.7l.72.95c-3.68-1.14-3.39-7.34,1.21-6.12,3.5.93,1.51,6.48-1.93,5.17Z"/>
      <path class="cls-1" d="M204.46,237.7l.72.95c-3.68-1.14-3.39-7.34,1.21-6.12,3.5.93,1.51,6.48-1.93,5.17Z"/>
      <path class="cls-1" d="M204.46,156.15l.72.95c-3.68-1.14-3.39-7.34,1.21-6.12,3.5.93,1.51,6.48-1.93,5.17Z"/>
      <path class="cls-1" d="M163.94,156.15l.72.95c-3.68-1.14-3.39-7.34,1.21-6.12,3.5.93,1.51,6.48-1.93,5.17Z"/>
      <path class="cls-1" d="M123.42,156.15l.72.95c-3.68-1.14-3.39-7.34,1.21-6.12,3.5.93,1.51,6.48-1.93,5.17Z"/>
      <path class="cls-1" d="M82.9,156.15l.72.95c-3.68-1.14-3.39-7.34,1.21-6.12,3.5.93,1.51,6.48-1.93,5.17Z"/>
      <path class="cls-1" d="M48.38,156.15l.72.95c-3.68-1.14-3.39-7.34,1.21-6.12,3.5.93,1.51,6.48-1.93,5.17Z"/>
      <g>
        <path class="cls-1" d="M57.25,326.45c-1.03,5.51-.05,11.33,3.01,16.06.47.55.38.08.3-.3-.78-3.32-1.9-6.56-1.6-10.1.02-.26.11-1.32.45-1.35,1.06,2.03,2.69,4.26,4.31,5.89,2.06,2.08,4.86,3.48,6.72,5.75,3.29,4.03,2.29,7.52-.62,11.36s-7.16,7.36-10.61,10.97c-.1.53,2,3.36,2.48,3.93,3.87,4.58,11.39,7.01,10.08,14.16-.68,3.69-7.5,10.2-10.31,12.95-1.75,1.71-3.68,3.29-5.4,5.03,1.06-3.21-1.4-6.6-3.48-8.88-3.15-3.47-12.07-8.03-12.06-13.07,0-5.33,10.14-13.3,13.86-16.79,1.34-1.25.79-1.39-.36-2.76-3.18-3.8-11.11-8.17-12.63-12.31-1.85-5.02,4.85-10.8,8.19-13.96,1.98-1.88,4.85-4.63,6.95-6.23.24-.18.3-.47.72-.36Z"/>
        <path class="cls-1" d="M57.25,244.9c-1.03,5.51-.05,11.33,3.01,16.06.47.55.38.08.3-.3-.78-3.32-1.9-6.56-1.6-10.1.02-.26.11-1.32.45-1.35,1.06,2.03,2.69,4.26,4.31,5.89,2.06,2.08,4.86,3.48,6.72,5.75,3.29,4.03,2.29,7.52-.62,11.36s-7.16,7.36-10.61,10.97c-.1.53,2,3.36,2.48,3.93,3.87,4.58,11.39,7.01,10.08,14.16-.68,3.69-7.5,10.2-10.31,12.95-1.75,1.71-3.68,3.29-5.4,5.03,1.06-3.21-1.4-6.6-3.48-8.88-3.15-3.47-12.07-8.03-12.06-13.07,0-5.33,10.14-13.3,13.86-16.79,1.34-1.25.79-1.39-.36-2.76-3.19-3.8-11.12-8.18-12.63-12.31-1.85-5.02,4.85-10.8,8.19-13.96,1.98-1.88,4.85-4.63,6.95-6.23.24-.18.3-.47.72-.36Z"/>
        <path class="cls-1" d="M48.38,319.25l.72.95c-3.68-1.14-3.39-7.34,1.21-6.12,3.5.93,1.51,6.48-1.93,5.17Z"/>
      </g>
      <path class="cls-1" d="M82.9,319.25l.72.95c-3.68-1.14-3.39-7.34,1.21-6.12,3.5.93,1.51,6.48-1.93,5.17Z"/>
      <g>
        <path class="cls-1" d="M132.29,326.45c-1.03,5.51-.05,11.33,3.01,16.06.47.55.38.08.3-.3-.78-3.32-1.9-6.56-1.6-10.1.02-.26.11-1.32.45-1.35,1.06,2.03,2.69,4.26,4.31,5.89,2.06,2.08,4.86,3.48,6.72,5.75,3.29,4.03,2.29,7.52-.62,11.36s-7.16,7.36-10.61,10.97c-.1.53,2,3.36,2.48,3.93,3.87,4.58,11.39,7.01,10.08,14.16-.68,3.69-7.5,10.2-10.31,12.95-1.75,1.71-3.68,3.29-5.4,5.03,1.06-3.21-1.4-6.6-3.48-8.88-3.15-3.47-12.07-8.03-12.06-13.07,0-5.33,10.14-13.3,13.86-16.79,1.34-1.25.79-1.39-.36-2.76-3.18-3.8-11.11-8.17-12.63-12.31-1.85-5.02,4.85-10.8,8.19-13.96,1.98-1.88,4.85-4.63,6.95-6.23.24-.18.3-.47.72-.36Z"/>
        <path class="cls-1" d="M132.29,244.9c-1.03,5.51-.05,11.33,3.01,16.06.47.55.38.08.3-.3-.78-3.32-1.9-6.56-1.6-10.1.02-.26.11-1.32.45-1.35,1.06,2.03,2.69,4.26,4.31,5.89,2.06,2.08,4.86,3.48,6.72,5.75,3.29,4.03,2.29,7.52-.62,11.36s-7.16,7.36-10.61,10.97c-.1.53,2,3.36,2.48,3.93,3.87,4.58,11.39,7.01,10.08,14.16-.68,3.69-7.5,10.2-10.31,12.95-1.75,1.71-3.68,3.29-5.4,5.03,1.06-3.21-1.4-6.6-3.48-8.88-3.15-3.47-12.07-8.03-12.06-13.07,0-5.33,10.14-13.3,13.86-16.79,1.34-1.25.79-1.39-.36-2.76-3.19-3.8-11.12-8.18-12.63-12.31-1.85-5.02,4.85-10.8,8.19-13.96,1.98-1.88,4.85-4.63,6.95-6.23.24-.18.3-.47.72-.36Z"/>
        <path class="cls-1" d="M123.42,319.25l.72.95c-3.68-1.14-3.39-7.34,1.21-6.12,3.5.93,1.51,6.48-1.93,5.17Z"/>
      </g>
      <path class="cls-1" d="M163.94,319.25l.72.95c-3.68-1.14-3.39-7.34,1.21-6.12,3.5.93,1.51,6.48-1.93,5.17Z"/>
      <path class="cls-1" d="M204.46,319.25l.72.95c-3.68-1.14-3.39-7.34,1.21-6.12,3.5.93,1.51,6.48-1.93,5.17Z"/>
      <g>
        <path class="cls-1" d="M228.67,347.79c-.3,3.85-4.59,8.23-7.19,10.92-2.01,2.08-4.26,3.88-6.2,6.02-.23,1.19,4.64,6.24,5.71,7.16,1.55,1.34,3.41,2.24,4.79,3.84,5.27,6.09.06,11.44-4.19,15.95-3,3.19-6.36,6.03-9.47,9.11,1.06-3.21-1.4-6.6-3.48-8.88-2.89-3.18-7.14-5.13-9.84-8.39-3.4-4.11-2.41-6.76.61-10.67,3.43-4.45,7.88-7.92,11.92-11.76-2.46-5.2-13.58-9.8-14.27-15.42-.53-4.29,5.53-9.77,8.44-12.53,2.02-1.91,4.94-4.71,7.08-6.35.24-.18.3-.47.72-.36-1.03,5.51-.05,11.33,3.01,16.06.47.55.38.08.3-.3-.78-3.32-1.9-6.56-1.6-10.1.02-.26.11-1.32.45-1.35,1.06,2.03,2.69,4.26,4.31,5.89,3.05,3.07,8.49,5.48,8.88,10.42.02.23.02.49,0,.72Z"/>
        <path class="cls-1" d="M228.67,266.24c-.3,3.85-4.59,8.23-7.19,10.92-2.01,2.08-4.26,3.88-6.2,6.02-.23,1.19,4.64,6.24,5.71,7.16,1.55,1.34,3.41,2.24,4.79,3.84,5.27,6.09.06,11.44-4.19,15.95-3,3.19-6.36,6.03-9.47,9.11,1.06-3.21-1.4-6.6-3.48-8.88-2.89-3.18-7.14-5.13-9.84-8.39-3.4-4.11-2.41-6.76.61-10.67,3.43-4.45,7.88-7.92,11.92-11.76-2.45-5.22-13.57-9.8-14.27-15.42-.53-4.29,5.53-9.77,8.44-12.53,2.02-1.91,4.94-4.71,7.08-6.35.24-.18.3-.47.72-.36-1.03,5.51-.05,11.33,3.01,16.06.47.55.38.08.3-.3-.78-3.32-1.9-6.56-1.6-10.1.02-.26.11-1.32.45-1.35,1.06,2.03,2.69,4.26,4.31,5.89,3.05,3.07,8.49,5.48,8.88,10.42.02.23.02.49,0,.72Z"/>
        <path class="cls-1" d="M228.67,184.69c-.3,3.85-4.59,8.23-7.19,10.92-2.01,2.08-4.26,3.88-6.2,6.02-.11.57,2.09,3.46,2.59,4.05,3.85,4.49,11.12,6.85,10.02,13.85-.58,3.69-7.35,10.17-10.13,12.9-1.82,1.79-3.84,3.45-5.64,5.27,1.06-3.21-1.4-6.6-3.48-8.88-2.89-3.18-7.14-5.13-9.84-8.39-3.4-4.11-2.41-6.76.61-10.67,3.43-4.45,7.88-7.92,11.92-11.76-2.45-5.22-13.57-9.8-14.27-15.42-.53-4.29,5.53-9.77,8.44-12.53,2.02-1.91,4.94-4.71,7.08-6.35.24-.18.3-.47.72-.36-1.03,5.51-.05,11.33,3.01,16.06.47.55.38.08.3-.3-.78-3.32-1.9-6.56-1.6-10.1.02-.26.11-1.32.45-1.35,1.06,2.03,2.69,4.26,4.31,5.89,3.05,3.07,8.49,5.48,8.88,10.42.02.23.02.49,0,.72Z"/>
        <g>
          <path class="cls-1" d="M228.67,21.59c-.31,3.91-4.78,8.43-7.43,11.16-1.93,1.99-4.13,3.7-5.96,5.78-.11.57,2.09,3.46,2.59,4.05,3.85,4.49,11.12,6.85,10.02,13.85-.58,3.69-7.35,10.17-10.13,12.9-1.82,1.79-3.84,3.45-5.64,5.27,1.06-3.21-1.4-6.6-3.48-8.88-2.88-3.17-7.14-5.15-9.84-8.39-3.41-4.09-2.4-6.77.61-10.67,3.43-4.45,7.88-7.92,11.92-11.76-2.91-5.06-9.02-7.51-12.53-11.87s-1.17-7.74,1.92-11.28c3.72-4.27,8.53-7.81,12.59-11.75-.99,5.64-.14,11.46,3.01,16.3.47.55.38.08.3-.3-.78-3.32-1.9-6.56-1.6-10.1.02-.26.11-1.32.45-1.35,1.06,2.03,2.69,4.26,4.31,5.89,3.05,3.07,8.49,5.48,8.88,10.42.02.23.02.49,0,.72Z"/>
          <path class="cls-1" d="M228.67,103.14c-.31,3.91-4.78,8.43-7.43,11.16-1.93,1.99-4.13,3.7-5.96,5.78-.11.57,2.09,3.46,2.59,4.05,3.85,4.49,11.12,6.85,10.02,13.85-.58,3.69-7.35,10.17-10.13,12.9-1.82,1.79-3.84,3.45-5.64,5.27,1.06-3.21-1.4-6.6-3.48-8.88-2.88-3.17-7.14-5.15-9.84-8.39-3.41-4.09-2.4-6.77.61-10.67,3.43-4.45,7.88-7.92,11.92-11.76-2.45-5.22-13.57-9.8-14.27-15.42-.53-4.33,5.73-9.98,8.68-12.77,1.94-1.83,4.78-4.54,6.84-6.11.24-.18.3-.47.72-.36-1.03,5.51-.05,11.33,3.01,16.06.47.55.38.08.3-.3-.78-3.32-1.9-6.56-1.6-10.1.02-.26.11-1.32.45-1.35,1.06,2.03,2.69,4.26,4.31,5.89,3.05,3.07,8.49,5.48,8.88,10.42.02.23.02.49,0,.72Z"/>
          <path class="cls-1" d="M204.46,74.6l.72.95c-3.68-1.14-3.39-7.34,1.21-6.12,3.5.93,1.51,6.48-1.93,5.17Z"/>
        </g>
      </g>
      <path class="cls-1" d="M163.94,74.6l.72.95c-3.68-1.14-3.39-7.34,1.21-6.12,3.5.93,1.51,6.48-1.93,5.17Z"/>
      <path class="cls-1" d="M123.42,74.6l.72.95c-3.68-1.14-3.39-7.34,1.21-6.12,3.5.93,1.51,6.48-1.93,5.17Z"/>
      <path class="cls-1" d="M82.9,74.6l.72.95c-3.68-1.14-3.39-7.34,1.21-6.12,3.5.93,1.51,6.48-1.93,5.17Z"/>
      <path class="cls-1" d="M48.38,74.6l.72.95c-3.68-1.14-3.39-7.34,1.21-6.12,3.5.93,1.51,6.48-1.93,5.17Z"/>
      <g>
        <path class="cls-1" d="M16.73,163.34c-1.03,5.51-.05,11.33,3.01,16.06.47.55.38.08.3-.3-.78-3.32-1.9-6.56-1.6-10.1.02-.26.11-1.32.45-1.35,1.06,2.03,2.69,4.26,4.31,5.89,2.06,2.08,4.86,3.48,6.72,5.75,3.29,4.03,2.29,7.52-.62,11.36s-7.16,7.36-10.61,10.97c-.23,1.19,4.64,6.24,5.71,7.16,3.69,3.18,7.96,4.86,6.85,10.92-.66,3.62-7.32,10.01-10.07,12.71-1.82,1.79-3.84,3.45-5.64,5.27,1.06-3.21-1.4-6.6-3.48-8.88C8.91,225.35,0,220.79,0,215.75c0-5.33,10.14-13.3,13.86-16.79,1.34-1.25.79-1.39-.36-2.76-3.19-3.8-11.12-8.18-12.63-12.31-1.85-5.02,4.85-10.8,8.19-13.96,1.98-1.88,4.85-4.63,6.95-6.23.24-.18.3-.47.72-.36Z"/>
        <path class="cls-1" d="M7.86,237.7l.72.95c-3.68-1.14-3.39-7.34,1.21-6.12,3.5.93,1.51,6.48-1.93,5.17Z"/>
        <g>
          <path class="cls-1" d="M16.73,326.45c-1.03,5.51-.05,11.33,3.01,16.06.47.55.38.08.3-.3-.78-3.32-1.9-6.56-1.6-10.1.02-.26.11-1.32.45-1.35,1.06,2.03,2.69,4.26,4.31,5.89,2.06,2.08,4.86,3.48,6.72,5.75,3.29,4.03,2.29,7.52-.62,11.36s-7.16,7.36-10.61,10.97c-.1.53,2,3.36,2.48,3.93,3.87,4.58,11.39,7.01,10.08,14.16-.68,3.69-7.5,10.2-10.31,12.95-1.75,1.71-3.68,3.29-5.4,5.03,1.06-3.21-1.4-6.6-3.48-8.88C8.91,388.45,0,383.89,0,378.85c0-5.33,10.14-13.3,13.86-16.79,1.34-1.25.79-1.39-.36-2.76-3.18-3.8-11.11-8.17-12.63-12.31-1.85-5.02,4.85-10.8,8.19-13.96,1.98-1.88,4.85-4.63,6.95-6.23.24-.18.3-.47.72-.36Z"/>
          <path class="cls-1" d="M16.73,244.9c-1.03,5.51-.05,11.33,3.01,16.06.47.55.38.08.3-.3-.78-3.32-1.9-6.56-1.6-10.1.02-.26.11-1.32.45-1.35,1.06,2.03,2.69,4.26,4.31,5.89,2.06,2.08,4.86,3.48,6.72,5.75,3.29,4.03,2.29,7.52-.62,11.36s-7.16,7.36-10.61,10.97c-.1.53,2,3.36,2.48,3.93,3.87,4.58,11.39,7.01,10.08,14.16-.68,3.69-7.5,10.2-10.31,12.95-1.75,1.71-3.68,3.29-5.4,5.03,1.06-3.21-1.4-6.6-3.48-8.88C8.91,306.9,0,302.34,0,297.3c0-5.33,10.14-13.3,13.86-16.79,1.34-1.25.79-1.39-.36-2.76-3.19-3.8-11.12-8.18-12.63-12.31-1.85-5.02,4.85-10.8,8.19-13.96,1.98-1.88,4.85-4.63,6.95-6.23.24-.18.3-.47.72-.36Z"/>
          <path class="cls-1" d="M7.86,319.25l.72.95c-3.68-1.14-3.39-7.34,1.21-6.12,3.5.93,1.51,6.48-1.93,5.17Z"/>
        </g>
        <path class="cls-1" d="M7.86,156.15l.72.95c-3.68-1.14-3.39-7.34,1.21-6.12,3.5.93,1.51,6.48-1.93,5.17Z"/>
        <path class="cls-1" d="M7.86,400.8l.72.84c-.9.25-1.76-1.05-2.09-1.74-2.41-5.1,5.17-5.8,5.16-1.85,0,2-1.9,3.46-3.79,2.76Z"/>
        <g>
          <path class="cls-1" d="M20.09,16.55c-.82-3.33-1.95-7.19-1.65-10.64.02-.26.11-1.32.45-1.35,1.06,2.03,2.69,4.26,4.31,5.89,3.62,3.64,9.93,6.04,8.57,12.4-1.19,5.59-9.43,11.44-13.08,15.69-.23,1.19,4.64,6.24,5.71,7.16,3.51,3.03,7.59,4.6,6.96,10.31-.44,4-7.26,10.45-10.18,13.32-1.82,1.79-3.84,3.45-5.64,5.27,1.06-3.21-1.4-6.6-3.48-8.88C8.92,62.26,0,57.66,0,52.65c0-3.6,5.67-9.41,8.22-11.88.79-.77,6.62-5.55,6.51-6-.2-.78-3.87-4.43-4.7-5.15-6.67-5.79-14.14-8.39-5.88-17.87C7.86,7.48,12.65,4.04,16.61,0c-.12,2.77-.49,5.18-.06,7.97s1.66,6.38,3.53,8.58Z"/>
          <path class="cls-1" d="M16.73,81.79c-1.03,5.51-.05,11.33,3.01,16.06.47.55.38.08.3-.3-.78-3.32-1.9-6.56-1.6-10.1.02-.26.11-1.32.45-1.35,1.06,2.03,2.69,4.26,4.31,5.89,2.06,2.08,4.86,3.48,6.72,5.75,3.29,4.03,2.29,7.52-.62,11.36s-7.18,7.35-10.61,10.97c-.23,1.19,4.64,6.24,5.71,7.16,3.69,3.18,7.96,4.86,6.85,10.92-.66,3.62-7.32,10.01-10.07,12.71-1.82,1.79-3.84,3.45-5.64,5.27,1.06-3.21-1.4-6.6-3.48-8.88C8.92,143.81,0,139.21,0,134.2c0-5.33,10.14-13.3,13.86-16.79,1.34-1.25.79-1.39-.36-2.76-3.19-3.8-11.12-8.18-12.63-12.31-1.87-5.07,5.06-11.01,8.43-14.2,1.89-1.79,4.71-4.46,6.71-5.99.24-.18.3-.47.72-.36Z"/>
          <path class="cls-1" d="M7.86,74.6l.72.95c-3.68-1.14-3.39-7.34,1.21-6.12,3.5.93,1.51,6.48-1.93,5.17Z"/>
        </g>
      </g>
      <path class="cls-1" d="M48.38,400.8l.72.84c-.9.25-1.76-1.05-2.09-1.74-2.41-5.1,5.17-5.8,5.16-1.85,0,2-1.9,3.46-3.79,2.76Z"/>
      <path class="cls-1" d="M82.9,400.8l.72.84c-.9.25-1.76-1.05-2.09-1.74-2.41-5.1,5.17-5.8,5.16-1.85,0,2-1.9,3.46-3.79,2.76Z"/>
      <path class="cls-1" d="M123.42,400.8l.72.84c-.9.25-1.76-1.05-2.09-1.74-2.41-5.1,5.17-5.8,5.16-1.85,0,2-1.9,3.46-3.79,2.76Z"/>
      <path class="cls-1" d="M163.94,400.8l.72.84c-.9.25-1.76-1.05-2.09-1.74-2.41-5.1,5.17-5.8,5.16-1.85,0,2-1.9,3.46-3.79,2.76Z"/>
      <path class="cls-1" d="M204.46,400.8l.72.84c-.9.25-1.76-1.05-2.09-1.74-2.41-5.1,5.17-5.8,5.16-1.85,0,2-1.9,3.46-3.79,2.76Z"/>
    </g>
  </g>
</svg>